G04 #@! TF.GenerationSoftware,KiCad,Pcbnew,(5.1.6)-1*
G04 #@! TF.CreationDate,2020-06-16T22:34:24-04:00*
G04 #@! TF.ProjectId,gantry-controller-prototype-DUE,67616e74-7279-42d6-936f-6e74726f6c6c,rev?*
G04 #@! TF.SameCoordinates,Original*
G04 #@! TF.FileFunction,Paste,Top*
G04 #@! TF.FilePolarity,Positive*
%FSLAX46Y46*%
G04 Gerber Fmt 4.6, Leading zero omitted, Abs format (unit mm)*
G04 Created by KiCad (PCBNEW (5.1.6)-1) date 2020-06-16 22:34:24*
%MOMM*%
%LPD*%
G01*
G04 APERTURE LIST*
%ADD10C,0.152400*%
%ADD11O,0.250000X0.650000*%
%ADD12R,0.780000X1.050000*%
%ADD13R,0.930000X0.900000*%
%ADD14R,3.330000X0.700000*%
%ADD15R,2.800000X0.860000*%
%ADD16R,1.830000X1.140000*%
%ADD17R,1.100000X0.700000*%
%ADD18R,1.016000X1.016000*%
%ADD19R,2.180400X1.630000*%
%ADD20R,1.803400X3.302000*%
%ADD21R,0.482600X1.168400*%
%ADD22R,2.108200X4.216400*%
%ADD23O,0.304800X1.651000*%
%ADD24R,0.650000X1.560000*%
%ADD25R,0.280000X0.850000*%
%ADD26R,0.850000X0.280000*%
%ADD27R,2.050000X2.050000*%
%ADD28R,0.800000X0.900000*%
G04 APERTURE END LIST*
D10*
X120660847Y-71105142D02*
X120839155Y-71105142D01*
X120660847Y-70356858D02*
X120660847Y-71105142D01*
X120839155Y-70356858D02*
X120660847Y-70356858D01*
X120839155Y-71105142D02*
X120839155Y-70356858D01*
X119160845Y-71105142D02*
X119339153Y-71105142D01*
X119160845Y-70356858D02*
X119160845Y-71105142D01*
X119339153Y-70356858D02*
X119160845Y-70356858D01*
X119339153Y-71105142D02*
X119339153Y-70356858D01*
X119160845Y-67643142D02*
X119339153Y-67643142D01*
X119160845Y-66894858D02*
X119160845Y-67643142D01*
X119339153Y-66894858D02*
X119160845Y-66894858D01*
X119339153Y-67643142D02*
X119339153Y-66894858D01*
X120660847Y-67643142D02*
X120839155Y-67643142D01*
X120660847Y-66894858D02*
X120660847Y-67643142D01*
X120839155Y-66894858D02*
X120660847Y-66894858D01*
X120839155Y-67643142D02*
X120839155Y-66894858D01*
G36*
G01*
X154262500Y-123334750D02*
X154262500Y-123665250D01*
G75*
G02*
X154122750Y-123805000I-139750J0D01*
G01*
X153843250Y-123805000D01*
G75*
G02*
X153703500Y-123665250I0J139750D01*
G01*
X153703500Y-123334750D01*
G75*
G02*
X153843250Y-123195000I139750J0D01*
G01*
X154122750Y-123195000D01*
G75*
G02*
X154262500Y-123334750I0J-139750D01*
G01*
G37*
G36*
G01*
X153296500Y-123334750D02*
X153296500Y-123665250D01*
G75*
G02*
X153156750Y-123805000I-139750J0D01*
G01*
X152877250Y-123805000D01*
G75*
G02*
X152737500Y-123665250I0J139750D01*
G01*
X152737500Y-123334750D01*
G75*
G02*
X152877250Y-123195000I139750J0D01*
G01*
X153156750Y-123195000D01*
G75*
G02*
X153296500Y-123334750I0J-139750D01*
G01*
G37*
G36*
G01*
X154512500Y-131834750D02*
X154512500Y-132165250D01*
G75*
G02*
X154372750Y-132305000I-139750J0D01*
G01*
X154093250Y-132305000D01*
G75*
G02*
X153953500Y-132165250I0J139750D01*
G01*
X153953500Y-131834750D01*
G75*
G02*
X154093250Y-131695000I139750J0D01*
G01*
X154372750Y-131695000D01*
G75*
G02*
X154512500Y-131834750I0J-139750D01*
G01*
G37*
G36*
G01*
X153546500Y-131834750D02*
X153546500Y-132165250D01*
G75*
G02*
X153406750Y-132305000I-139750J0D01*
G01*
X153127250Y-132305000D01*
G75*
G02*
X152987500Y-132165250I0J139750D01*
G01*
X152987500Y-131834750D01*
G75*
G02*
X153127250Y-131695000I139750J0D01*
G01*
X153406750Y-131695000D01*
G75*
G02*
X153546500Y-131834750I0J-139750D01*
G01*
G37*
G36*
G01*
X168165250Y-123762500D02*
X167834750Y-123762500D01*
G75*
G02*
X167695000Y-123622750I0J139750D01*
G01*
X167695000Y-123343250D01*
G75*
G02*
X167834750Y-123203500I139750J0D01*
G01*
X168165250Y-123203500D01*
G75*
G02*
X168305000Y-123343250I0J-139750D01*
G01*
X168305000Y-123622750D01*
G75*
G02*
X168165250Y-123762500I-139750J0D01*
G01*
G37*
G36*
G01*
X168165250Y-122796500D02*
X167834750Y-122796500D01*
G75*
G02*
X167695000Y-122656750I0J139750D01*
G01*
X167695000Y-122377250D01*
G75*
G02*
X167834750Y-122237500I139750J0D01*
G01*
X168165250Y-122237500D01*
G75*
G02*
X168305000Y-122377250I0J-139750D01*
G01*
X168305000Y-122656750D01*
G75*
G02*
X168165250Y-122796500I-139750J0D01*
G01*
G37*
G36*
G01*
X167737500Y-132165250D02*
X167737500Y-131834750D01*
G75*
G02*
X167877250Y-131695000I139750J0D01*
G01*
X168156750Y-131695000D01*
G75*
G02*
X168296500Y-131834750I0J-139750D01*
G01*
X168296500Y-132165250D01*
G75*
G02*
X168156750Y-132305000I-139750J0D01*
G01*
X167877250Y-132305000D01*
G75*
G02*
X167737500Y-132165250I0J139750D01*
G01*
G37*
G36*
G01*
X168703500Y-132165250D02*
X168703500Y-131834750D01*
G75*
G02*
X168843250Y-131695000I139750J0D01*
G01*
X169122750Y-131695000D01*
G75*
G02*
X169262500Y-131834750I0J-139750D01*
G01*
X169262500Y-132165250D01*
G75*
G02*
X169122750Y-132305000I-139750J0D01*
G01*
X168843250Y-132305000D01*
G75*
G02*
X168703500Y-132165250I0J139750D01*
G01*
G37*
G36*
G01*
X116334750Y-69987500D02*
X116665250Y-69987500D01*
G75*
G02*
X116805000Y-70127250I0J-139750D01*
G01*
X116805000Y-70406750D01*
G75*
G02*
X116665250Y-70546500I-139750J0D01*
G01*
X116334750Y-70546500D01*
G75*
G02*
X116195000Y-70406750I0J139750D01*
G01*
X116195000Y-70127250D01*
G75*
G02*
X116334750Y-69987500I139750J0D01*
G01*
G37*
G36*
G01*
X116334750Y-70953500D02*
X116665250Y-70953500D01*
G75*
G02*
X116805000Y-71093250I0J-139750D01*
G01*
X116805000Y-71372750D01*
G75*
G02*
X116665250Y-71512500I-139750J0D01*
G01*
X116334750Y-71512500D01*
G75*
G02*
X116195000Y-71372750I0J139750D01*
G01*
X116195000Y-71093250D01*
G75*
G02*
X116334750Y-70953500I139750J0D01*
G01*
G37*
G36*
G01*
X114279500Y-67834750D02*
X114279500Y-68165250D01*
G75*
G02*
X114139750Y-68305000I-139750J0D01*
G01*
X113860250Y-68305000D01*
G75*
G02*
X113720500Y-68165250I0J139750D01*
G01*
X113720500Y-67834750D01*
G75*
G02*
X113860250Y-67695000I139750J0D01*
G01*
X114139750Y-67695000D01*
G75*
G02*
X114279500Y-67834750I0J-139750D01*
G01*
G37*
G36*
G01*
X113313500Y-67834750D02*
X113313500Y-68165250D01*
G75*
G02*
X113173750Y-68305000I-139750J0D01*
G01*
X112894250Y-68305000D01*
G75*
G02*
X112754500Y-68165250I0J139750D01*
G01*
X112754500Y-67834750D01*
G75*
G02*
X112894250Y-67695000I139750J0D01*
G01*
X113173750Y-67695000D01*
G75*
G02*
X113313500Y-67834750I0J-139750D01*
G01*
G37*
G36*
G01*
X125415250Y-67262500D02*
X125084750Y-67262500D01*
G75*
G02*
X124945000Y-67122750I0J139750D01*
G01*
X124945000Y-66843250D01*
G75*
G02*
X125084750Y-66703500I139750J0D01*
G01*
X125415250Y-66703500D01*
G75*
G02*
X125555000Y-66843250I0J-139750D01*
G01*
X125555000Y-67122750D01*
G75*
G02*
X125415250Y-67262500I-139750J0D01*
G01*
G37*
G36*
G01*
X125415250Y-66296500D02*
X125084750Y-66296500D01*
G75*
G02*
X124945000Y-66156750I0J139750D01*
G01*
X124945000Y-65877250D01*
G75*
G02*
X125084750Y-65737500I139750J0D01*
G01*
X125415250Y-65737500D01*
G75*
G02*
X125555000Y-65877250I0J-139750D01*
G01*
X125555000Y-66156750D01*
G75*
G02*
X125415250Y-66296500I-139750J0D01*
G01*
G37*
G36*
G01*
X122334750Y-70737500D02*
X122665250Y-70737500D01*
G75*
G02*
X122805000Y-70877250I0J-139750D01*
G01*
X122805000Y-71156750D01*
G75*
G02*
X122665250Y-71296500I-139750J0D01*
G01*
X122334750Y-71296500D01*
G75*
G02*
X122195000Y-71156750I0J139750D01*
G01*
X122195000Y-70877250D01*
G75*
G02*
X122334750Y-70737500I139750J0D01*
G01*
G37*
G36*
G01*
X122334750Y-71703500D02*
X122665250Y-71703500D01*
G75*
G02*
X122805000Y-71843250I0J-139750D01*
G01*
X122805000Y-72122750D01*
G75*
G02*
X122665250Y-72262500I-139750J0D01*
G01*
X122334750Y-72262500D01*
G75*
G02*
X122195000Y-72122750I0J139750D01*
G01*
X122195000Y-71843250D01*
G75*
G02*
X122334750Y-71703500I139750J0D01*
G01*
G37*
G36*
G01*
X228737500Y-126665250D02*
X228737500Y-126334750D01*
G75*
G02*
X228877250Y-126195000I139750J0D01*
G01*
X229156750Y-126195000D01*
G75*
G02*
X229296500Y-126334750I0J-139750D01*
G01*
X229296500Y-126665250D01*
G75*
G02*
X229156750Y-126805000I-139750J0D01*
G01*
X228877250Y-126805000D01*
G75*
G02*
X228737500Y-126665250I0J139750D01*
G01*
G37*
G36*
G01*
X229703500Y-126665250D02*
X229703500Y-126334750D01*
G75*
G02*
X229843250Y-126195000I139750J0D01*
G01*
X230122750Y-126195000D01*
G75*
G02*
X230262500Y-126334750I0J-139750D01*
G01*
X230262500Y-126665250D01*
G75*
G02*
X230122750Y-126805000I-139750J0D01*
G01*
X229843250Y-126805000D01*
G75*
G02*
X229703500Y-126665250I0J139750D01*
G01*
G37*
G36*
G01*
X232762500Y-126334750D02*
X232762500Y-126665250D01*
G75*
G02*
X232622750Y-126805000I-139750J0D01*
G01*
X232343250Y-126805000D01*
G75*
G02*
X232203500Y-126665250I0J139750D01*
G01*
X232203500Y-126334750D01*
G75*
G02*
X232343250Y-126195000I139750J0D01*
G01*
X232622750Y-126195000D01*
G75*
G02*
X232762500Y-126334750I0J-139750D01*
G01*
G37*
G36*
G01*
X231796500Y-126334750D02*
X231796500Y-126665250D01*
G75*
G02*
X231656750Y-126805000I-139750J0D01*
G01*
X231377250Y-126805000D01*
G75*
G02*
X231237500Y-126665250I0J139750D01*
G01*
X231237500Y-126334750D01*
G75*
G02*
X231377250Y-126195000I139750J0D01*
G01*
X231656750Y-126195000D01*
G75*
G02*
X231796500Y-126334750I0J-139750D01*
G01*
G37*
D11*
X231500000Y-130425000D03*
X231000000Y-130425000D03*
X230500000Y-130425000D03*
X230000000Y-130425000D03*
X230000000Y-128075000D03*
X230500000Y-128075000D03*
X231000000Y-128075000D03*
X231500000Y-128075000D03*
G36*
G01*
X230703500Y-131915250D02*
X230703500Y-131584750D01*
G75*
G02*
X230843250Y-131445000I139750J0D01*
G01*
X231122750Y-131445000D01*
G75*
G02*
X231262500Y-131584750I0J-139750D01*
G01*
X231262500Y-131915250D01*
G75*
G02*
X231122750Y-132055000I-139750J0D01*
G01*
X230843250Y-132055000D01*
G75*
G02*
X230703500Y-131915250I0J139750D01*
G01*
G37*
G36*
G01*
X229737500Y-131915250D02*
X229737500Y-131584750D01*
G75*
G02*
X229877250Y-131445000I139750J0D01*
G01*
X230156750Y-131445000D01*
G75*
G02*
X230296500Y-131584750I0J-139750D01*
G01*
X230296500Y-131915250D01*
G75*
G02*
X230156750Y-132055000I-139750J0D01*
G01*
X229877250Y-132055000D01*
G75*
G02*
X229737500Y-131915250I0J139750D01*
G01*
G37*
D12*
X243835000Y-113095000D03*
D13*
X243910000Y-108830000D03*
D14*
X245110000Y-119480000D03*
X245110000Y-106520000D03*
D15*
X255875000Y-119400000D03*
D16*
X256360000Y-106740000D03*
D17*
X256375000Y-118320000D03*
X256375000Y-117220000D03*
X256375000Y-116120000D03*
X256375000Y-115020000D03*
X256375000Y-113920000D03*
X256375000Y-112820000D03*
X256375000Y-111720000D03*
X256375000Y-110620000D03*
G36*
G01*
X258665250Y-108296500D02*
X258334750Y-108296500D01*
G75*
G02*
X258195000Y-108156750I0J139750D01*
G01*
X258195000Y-107877250D01*
G75*
G02*
X258334750Y-107737500I139750J0D01*
G01*
X258665250Y-107737500D01*
G75*
G02*
X258805000Y-107877250I0J-139750D01*
G01*
X258805000Y-108156750D01*
G75*
G02*
X258665250Y-108296500I-139750J0D01*
G01*
G37*
G36*
G01*
X258665250Y-109262500D02*
X258334750Y-109262500D01*
G75*
G02*
X258195000Y-109122750I0J139750D01*
G01*
X258195000Y-108843250D01*
G75*
G02*
X258334750Y-108703500I139750J0D01*
G01*
X258665250Y-108703500D01*
G75*
G02*
X258805000Y-108843250I0J-139750D01*
G01*
X258805000Y-109122750D01*
G75*
G02*
X258665250Y-109262500I-139750J0D01*
G01*
G37*
G36*
G01*
X197762500Y-60584750D02*
X197762500Y-60915250D01*
G75*
G02*
X197622750Y-61055000I-139750J0D01*
G01*
X197343250Y-61055000D01*
G75*
G02*
X197203500Y-60915250I0J139750D01*
G01*
X197203500Y-60584750D01*
G75*
G02*
X197343250Y-60445000I139750J0D01*
G01*
X197622750Y-60445000D01*
G75*
G02*
X197762500Y-60584750I0J-139750D01*
G01*
G37*
G36*
G01*
X196796500Y-60584750D02*
X196796500Y-60915250D01*
G75*
G02*
X196656750Y-61055000I-139750J0D01*
G01*
X196377250Y-61055000D01*
G75*
G02*
X196237500Y-60915250I0J139750D01*
G01*
X196237500Y-60584750D01*
G75*
G02*
X196377250Y-60445000I139750J0D01*
G01*
X196656750Y-60445000D01*
G75*
G02*
X196796500Y-60584750I0J-139750D01*
G01*
G37*
G36*
G01*
X200125000Y-61062500D02*
X200125000Y-60437500D01*
G75*
G02*
X200312500Y-60250000I187500J0D01*
G01*
X200687500Y-60250000D01*
G75*
G02*
X200875000Y-60437500I0J-187500D01*
G01*
X200875000Y-61062500D01*
G75*
G02*
X200687500Y-61250000I-187500J0D01*
G01*
X200312500Y-61250000D01*
G75*
G02*
X200125000Y-61062500I0J187500D01*
G01*
G37*
G36*
G01*
X198625000Y-61062500D02*
X198625000Y-60437500D01*
G75*
G02*
X198812500Y-60250000I187500J0D01*
G01*
X199187500Y-60250000D01*
G75*
G02*
X199375000Y-60437500I0J-187500D01*
G01*
X199375000Y-61062500D01*
G75*
G02*
X199187500Y-61250000I-187500J0D01*
G01*
X198812500Y-61250000D01*
G75*
G02*
X198625000Y-61062500I0J187500D01*
G01*
G37*
G36*
G01*
X205649000Y-111020000D02*
X205019000Y-111020000D01*
G75*
G02*
X204834000Y-110835000I0J185000D01*
G01*
X204834000Y-110465000D01*
G75*
G02*
X205019000Y-110280000I185000J0D01*
G01*
X205649000Y-110280000D01*
G75*
G02*
X205834000Y-110465000I0J-185000D01*
G01*
X205834000Y-110835000D01*
G75*
G02*
X205649000Y-111020000I-185000J0D01*
G01*
G37*
G36*
G01*
X205649000Y-112220000D02*
X205019000Y-112220000D01*
G75*
G02*
X204834000Y-112035000I0J185000D01*
G01*
X204834000Y-111665000D01*
G75*
G02*
X205019000Y-111480000I185000J0D01*
G01*
X205649000Y-111480000D01*
G75*
G02*
X205834000Y-111665000I0J-185000D01*
G01*
X205834000Y-112035000D01*
G75*
G02*
X205649000Y-112220000I-185000J0D01*
G01*
G37*
G36*
G01*
X140980000Y-70685000D02*
X140980000Y-70055000D01*
G75*
G02*
X141165000Y-69870000I185000J0D01*
G01*
X141535000Y-69870000D01*
G75*
G02*
X141720000Y-70055000I0J-185000D01*
G01*
X141720000Y-70685000D01*
G75*
G02*
X141535000Y-70870000I-185000J0D01*
G01*
X141165000Y-70870000D01*
G75*
G02*
X140980000Y-70685000I0J185000D01*
G01*
G37*
G36*
G01*
X139780000Y-70685000D02*
X139780000Y-70055000D01*
G75*
G02*
X139965000Y-69870000I185000J0D01*
G01*
X140335000Y-69870000D01*
G75*
G02*
X140520000Y-70055000I0J-185000D01*
G01*
X140520000Y-70685000D01*
G75*
G02*
X140335000Y-70870000I-185000J0D01*
G01*
X139965000Y-70870000D01*
G75*
G02*
X139780000Y-70685000I0J185000D01*
G01*
G37*
D18*
X191218000Y-61000000D03*
X193250000Y-61000000D03*
G36*
G01*
X132270000Y-70055000D02*
X132270000Y-70685000D01*
G75*
G02*
X132085000Y-70870000I-185000J0D01*
G01*
X131715000Y-70870000D01*
G75*
G02*
X131530000Y-70685000I0J185000D01*
G01*
X131530000Y-70055000D01*
G75*
G02*
X131715000Y-69870000I185000J0D01*
G01*
X132085000Y-69870000D01*
G75*
G02*
X132270000Y-70055000I0J-185000D01*
G01*
G37*
G36*
G01*
X133470000Y-70055000D02*
X133470000Y-70685000D01*
G75*
G02*
X133285000Y-70870000I-185000J0D01*
G01*
X132915000Y-70870000D01*
G75*
G02*
X132730000Y-70685000I0J185000D01*
G01*
X132730000Y-70055000D01*
G75*
G02*
X132915000Y-69870000I185000J0D01*
G01*
X133285000Y-69870000D01*
G75*
G02*
X133470000Y-70055000I0J-185000D01*
G01*
G37*
D19*
X179642800Y-60500000D03*
X183357200Y-60500000D03*
D20*
X186250000Y-52244100D03*
X186250000Y-57755900D03*
G36*
G01*
X237737500Y-88165250D02*
X237737500Y-87834750D01*
G75*
G02*
X237877250Y-87695000I139750J0D01*
G01*
X238156750Y-87695000D01*
G75*
G02*
X238296500Y-87834750I0J-139750D01*
G01*
X238296500Y-88165250D01*
G75*
G02*
X238156750Y-88305000I-139750J0D01*
G01*
X237877250Y-88305000D01*
G75*
G02*
X237737500Y-88165250I0J139750D01*
G01*
G37*
G36*
G01*
X238703500Y-88165250D02*
X238703500Y-87834750D01*
G75*
G02*
X238843250Y-87695000I139750J0D01*
G01*
X239122750Y-87695000D01*
G75*
G02*
X239262500Y-87834750I0J-139750D01*
G01*
X239262500Y-88165250D01*
G75*
G02*
X239122750Y-88305000I-139750J0D01*
G01*
X238843250Y-88305000D01*
G75*
G02*
X238703500Y-88165250I0J139750D01*
G01*
G37*
G36*
G01*
X237737500Y-78165250D02*
X237737500Y-77834750D01*
G75*
G02*
X237877250Y-77695000I139750J0D01*
G01*
X238156750Y-77695000D01*
G75*
G02*
X238296500Y-77834750I0J-139750D01*
G01*
X238296500Y-78165250D01*
G75*
G02*
X238156750Y-78305000I-139750J0D01*
G01*
X237877250Y-78305000D01*
G75*
G02*
X237737500Y-78165250I0J139750D01*
G01*
G37*
G36*
G01*
X238703500Y-78165250D02*
X238703500Y-77834750D01*
G75*
G02*
X238843250Y-77695000I139750J0D01*
G01*
X239122750Y-77695000D01*
G75*
G02*
X239262500Y-77834750I0J-139750D01*
G01*
X239262500Y-78165250D01*
G75*
G02*
X239122750Y-78305000I-139750J0D01*
G01*
X238843250Y-78305000D01*
G75*
G02*
X238703500Y-78165250I0J139750D01*
G01*
G37*
G36*
G01*
X237737500Y-85665250D02*
X237737500Y-85334750D01*
G75*
G02*
X237877250Y-85195000I139750J0D01*
G01*
X238156750Y-85195000D01*
G75*
G02*
X238296500Y-85334750I0J-139750D01*
G01*
X238296500Y-85665250D01*
G75*
G02*
X238156750Y-85805000I-139750J0D01*
G01*
X237877250Y-85805000D01*
G75*
G02*
X237737500Y-85665250I0J139750D01*
G01*
G37*
G36*
G01*
X238703500Y-85665250D02*
X238703500Y-85334750D01*
G75*
G02*
X238843250Y-85195000I139750J0D01*
G01*
X239122750Y-85195000D01*
G75*
G02*
X239262500Y-85334750I0J-139750D01*
G01*
X239262500Y-85665250D01*
G75*
G02*
X239122750Y-85805000I-139750J0D01*
G01*
X238843250Y-85805000D01*
G75*
G02*
X238703500Y-85665250I0J139750D01*
G01*
G37*
G36*
G01*
X237737500Y-75665250D02*
X237737500Y-75334750D01*
G75*
G02*
X237877250Y-75195000I139750J0D01*
G01*
X238156750Y-75195000D01*
G75*
G02*
X238296500Y-75334750I0J-139750D01*
G01*
X238296500Y-75665250D01*
G75*
G02*
X238156750Y-75805000I-139750J0D01*
G01*
X237877250Y-75805000D01*
G75*
G02*
X237737500Y-75665250I0J139750D01*
G01*
G37*
G36*
G01*
X238703500Y-75665250D02*
X238703500Y-75334750D01*
G75*
G02*
X238843250Y-75195000I139750J0D01*
G01*
X239122750Y-75195000D01*
G75*
G02*
X239262500Y-75334750I0J-139750D01*
G01*
X239262500Y-75665250D01*
G75*
G02*
X239122750Y-75805000I-139750J0D01*
G01*
X238843250Y-75805000D01*
G75*
G02*
X238703500Y-75665250I0J139750D01*
G01*
G37*
G36*
G01*
X237720500Y-83165250D02*
X237720500Y-82834750D01*
G75*
G02*
X237860250Y-82695000I139750J0D01*
G01*
X238139750Y-82695000D01*
G75*
G02*
X238279500Y-82834750I0J-139750D01*
G01*
X238279500Y-83165250D01*
G75*
G02*
X238139750Y-83305000I-139750J0D01*
G01*
X237860250Y-83305000D01*
G75*
G02*
X237720500Y-83165250I0J139750D01*
G01*
G37*
G36*
G01*
X238686500Y-83165250D02*
X238686500Y-82834750D01*
G75*
G02*
X238826250Y-82695000I139750J0D01*
G01*
X239105750Y-82695000D01*
G75*
G02*
X239245500Y-82834750I0J-139750D01*
G01*
X239245500Y-83165250D01*
G75*
G02*
X239105750Y-83305000I-139750J0D01*
G01*
X238826250Y-83305000D01*
G75*
G02*
X238686500Y-83165250I0J139750D01*
G01*
G37*
G36*
G01*
X237737500Y-73165250D02*
X237737500Y-72834750D01*
G75*
G02*
X237877250Y-72695000I139750J0D01*
G01*
X238156750Y-72695000D01*
G75*
G02*
X238296500Y-72834750I0J-139750D01*
G01*
X238296500Y-73165250D01*
G75*
G02*
X238156750Y-73305000I-139750J0D01*
G01*
X237877250Y-73305000D01*
G75*
G02*
X237737500Y-73165250I0J139750D01*
G01*
G37*
G36*
G01*
X238703500Y-73165250D02*
X238703500Y-72834750D01*
G75*
G02*
X238843250Y-72695000I139750J0D01*
G01*
X239122750Y-72695000D01*
G75*
G02*
X239262500Y-72834750I0J-139750D01*
G01*
X239262500Y-73165250D01*
G75*
G02*
X239122750Y-73305000I-139750J0D01*
G01*
X238843250Y-73305000D01*
G75*
G02*
X238703500Y-73165250I0J139750D01*
G01*
G37*
G36*
G01*
X237754500Y-80665250D02*
X237754500Y-80334750D01*
G75*
G02*
X237894250Y-80195000I139750J0D01*
G01*
X238173750Y-80195000D01*
G75*
G02*
X238313500Y-80334750I0J-139750D01*
G01*
X238313500Y-80665250D01*
G75*
G02*
X238173750Y-80805000I-139750J0D01*
G01*
X237894250Y-80805000D01*
G75*
G02*
X237754500Y-80665250I0J139750D01*
G01*
G37*
G36*
G01*
X238720500Y-80665250D02*
X238720500Y-80334750D01*
G75*
G02*
X238860250Y-80195000I139750J0D01*
G01*
X239139750Y-80195000D01*
G75*
G02*
X239279500Y-80334750I0J-139750D01*
G01*
X239279500Y-80665250D01*
G75*
G02*
X239139750Y-80805000I-139750J0D01*
G01*
X238860250Y-80805000D01*
G75*
G02*
X238720500Y-80665250I0J139750D01*
G01*
G37*
G36*
G01*
X237720500Y-70665250D02*
X237720500Y-70334750D01*
G75*
G02*
X237860250Y-70195000I139750J0D01*
G01*
X238139750Y-70195000D01*
G75*
G02*
X238279500Y-70334750I0J-139750D01*
G01*
X238279500Y-70665250D01*
G75*
G02*
X238139750Y-70805000I-139750J0D01*
G01*
X237860250Y-70805000D01*
G75*
G02*
X237720500Y-70665250I0J139750D01*
G01*
G37*
G36*
G01*
X238686500Y-70665250D02*
X238686500Y-70334750D01*
G75*
G02*
X238826250Y-70195000I139750J0D01*
G01*
X239105750Y-70195000D01*
G75*
G02*
X239245500Y-70334750I0J-139750D01*
G01*
X239245500Y-70665250D01*
G75*
G02*
X239105750Y-70805000I-139750J0D01*
G01*
X238826250Y-70805000D01*
G75*
G02*
X238686500Y-70665250I0J139750D01*
G01*
G37*
G36*
G01*
X244125000Y-88312500D02*
X244125000Y-87687500D01*
G75*
G02*
X244312500Y-87500000I187500J0D01*
G01*
X244687500Y-87500000D01*
G75*
G02*
X244875000Y-87687500I0J-187500D01*
G01*
X244875000Y-88312500D01*
G75*
G02*
X244687500Y-88500000I-187500J0D01*
G01*
X244312500Y-88500000D01*
G75*
G02*
X244125000Y-88312500I0J187500D01*
G01*
G37*
G36*
G01*
X242625000Y-88312500D02*
X242625000Y-87687500D01*
G75*
G02*
X242812500Y-87500000I187500J0D01*
G01*
X243187500Y-87500000D01*
G75*
G02*
X243375000Y-87687500I0J-187500D01*
G01*
X243375000Y-88312500D01*
G75*
G02*
X243187500Y-88500000I-187500J0D01*
G01*
X242812500Y-88500000D01*
G75*
G02*
X242625000Y-88312500I0J187500D01*
G01*
G37*
G36*
G01*
X244125000Y-78312500D02*
X244125000Y-77687500D01*
G75*
G02*
X244312500Y-77500000I187500J0D01*
G01*
X244687500Y-77500000D01*
G75*
G02*
X244875000Y-77687500I0J-187500D01*
G01*
X244875000Y-78312500D01*
G75*
G02*
X244687500Y-78500000I-187500J0D01*
G01*
X244312500Y-78500000D01*
G75*
G02*
X244125000Y-78312500I0J187500D01*
G01*
G37*
G36*
G01*
X242625000Y-78312500D02*
X242625000Y-77687500D01*
G75*
G02*
X242812500Y-77500000I187500J0D01*
G01*
X243187500Y-77500000D01*
G75*
G02*
X243375000Y-77687500I0J-187500D01*
G01*
X243375000Y-78312500D01*
G75*
G02*
X243187500Y-78500000I-187500J0D01*
G01*
X242812500Y-78500000D01*
G75*
G02*
X242625000Y-78312500I0J187500D01*
G01*
G37*
G36*
G01*
X244125000Y-85812500D02*
X244125000Y-85187500D01*
G75*
G02*
X244312500Y-85000000I187500J0D01*
G01*
X244687500Y-85000000D01*
G75*
G02*
X244875000Y-85187500I0J-187500D01*
G01*
X244875000Y-85812500D01*
G75*
G02*
X244687500Y-86000000I-187500J0D01*
G01*
X244312500Y-86000000D01*
G75*
G02*
X244125000Y-85812500I0J187500D01*
G01*
G37*
G36*
G01*
X242625000Y-85812500D02*
X242625000Y-85187500D01*
G75*
G02*
X242812500Y-85000000I187500J0D01*
G01*
X243187500Y-85000000D01*
G75*
G02*
X243375000Y-85187500I0J-187500D01*
G01*
X243375000Y-85812500D01*
G75*
G02*
X243187500Y-86000000I-187500J0D01*
G01*
X242812500Y-86000000D01*
G75*
G02*
X242625000Y-85812500I0J187500D01*
G01*
G37*
G36*
G01*
X244125000Y-75812500D02*
X244125000Y-75187500D01*
G75*
G02*
X244312500Y-75000000I187500J0D01*
G01*
X244687500Y-75000000D01*
G75*
G02*
X244875000Y-75187500I0J-187500D01*
G01*
X244875000Y-75812500D01*
G75*
G02*
X244687500Y-76000000I-187500J0D01*
G01*
X244312500Y-76000000D01*
G75*
G02*
X244125000Y-75812500I0J187500D01*
G01*
G37*
G36*
G01*
X242625000Y-75812500D02*
X242625000Y-75187500D01*
G75*
G02*
X242812500Y-75000000I187500J0D01*
G01*
X243187500Y-75000000D01*
G75*
G02*
X243375000Y-75187500I0J-187500D01*
G01*
X243375000Y-75812500D01*
G75*
G02*
X243187500Y-76000000I-187500J0D01*
G01*
X242812500Y-76000000D01*
G75*
G02*
X242625000Y-75812500I0J187500D01*
G01*
G37*
G36*
G01*
X244125000Y-83312500D02*
X244125000Y-82687500D01*
G75*
G02*
X244312500Y-82500000I187500J0D01*
G01*
X244687500Y-82500000D01*
G75*
G02*
X244875000Y-82687500I0J-187500D01*
G01*
X244875000Y-83312500D01*
G75*
G02*
X244687500Y-83500000I-187500J0D01*
G01*
X244312500Y-83500000D01*
G75*
G02*
X244125000Y-83312500I0J187500D01*
G01*
G37*
G36*
G01*
X242625000Y-83312500D02*
X242625000Y-82687500D01*
G75*
G02*
X242812500Y-82500000I187500J0D01*
G01*
X243187500Y-82500000D01*
G75*
G02*
X243375000Y-82687500I0J-187500D01*
G01*
X243375000Y-83312500D01*
G75*
G02*
X243187500Y-83500000I-187500J0D01*
G01*
X242812500Y-83500000D01*
G75*
G02*
X242625000Y-83312500I0J187500D01*
G01*
G37*
G36*
G01*
X244125000Y-73312500D02*
X244125000Y-72687500D01*
G75*
G02*
X244312500Y-72500000I187500J0D01*
G01*
X244687500Y-72500000D01*
G75*
G02*
X244875000Y-72687500I0J-187500D01*
G01*
X244875000Y-73312500D01*
G75*
G02*
X244687500Y-73500000I-187500J0D01*
G01*
X244312500Y-73500000D01*
G75*
G02*
X244125000Y-73312500I0J187500D01*
G01*
G37*
G36*
G01*
X242625000Y-73312500D02*
X242625000Y-72687500D01*
G75*
G02*
X242812500Y-72500000I187500J0D01*
G01*
X243187500Y-72500000D01*
G75*
G02*
X243375000Y-72687500I0J-187500D01*
G01*
X243375000Y-73312500D01*
G75*
G02*
X243187500Y-73500000I-187500J0D01*
G01*
X242812500Y-73500000D01*
G75*
G02*
X242625000Y-73312500I0J187500D01*
G01*
G37*
G36*
G01*
X244125000Y-80812500D02*
X244125000Y-80187500D01*
G75*
G02*
X244312500Y-80000000I187500J0D01*
G01*
X244687500Y-80000000D01*
G75*
G02*
X244875000Y-80187500I0J-187500D01*
G01*
X244875000Y-80812500D01*
G75*
G02*
X244687500Y-81000000I-187500J0D01*
G01*
X244312500Y-81000000D01*
G75*
G02*
X244125000Y-80812500I0J187500D01*
G01*
G37*
G36*
G01*
X242625000Y-80812500D02*
X242625000Y-80187500D01*
G75*
G02*
X242812500Y-80000000I187500J0D01*
G01*
X243187500Y-80000000D01*
G75*
G02*
X243375000Y-80187500I0J-187500D01*
G01*
X243375000Y-80812500D01*
G75*
G02*
X243187500Y-81000000I-187500J0D01*
G01*
X242812500Y-81000000D01*
G75*
G02*
X242625000Y-80812500I0J187500D01*
G01*
G37*
G36*
G01*
X244125000Y-70812500D02*
X244125000Y-70187500D01*
G75*
G02*
X244312500Y-70000000I187500J0D01*
G01*
X244687500Y-70000000D01*
G75*
G02*
X244875000Y-70187500I0J-187500D01*
G01*
X244875000Y-70812500D01*
G75*
G02*
X244687500Y-71000000I-187500J0D01*
G01*
X244312500Y-71000000D01*
G75*
G02*
X244125000Y-70812500I0J187500D01*
G01*
G37*
G36*
G01*
X242625000Y-70812500D02*
X242625000Y-70187500D01*
G75*
G02*
X242812500Y-70000000I187500J0D01*
G01*
X243187500Y-70000000D01*
G75*
G02*
X243375000Y-70187500I0J-187500D01*
G01*
X243375000Y-70812500D01*
G75*
G02*
X243187500Y-71000000I-187500J0D01*
G01*
X242812500Y-71000000D01*
G75*
G02*
X242625000Y-70812500I0J187500D01*
G01*
G37*
D21*
X253400000Y-145582400D03*
X253400000Y-147817600D03*
D22*
X62166000Y-147078700D03*
X62166000Y-138671300D03*
D23*
X155158000Y-123380500D03*
X155666000Y-123380500D03*
X156174000Y-123380500D03*
X156682000Y-123380500D03*
X157190000Y-123380500D03*
X157698000Y-123380500D03*
X158206000Y-123380500D03*
X158714000Y-123380500D03*
X159222000Y-123380500D03*
X159730000Y-123380500D03*
X160238000Y-123380500D03*
X160746000Y-123380500D03*
X161254000Y-123380500D03*
X161762000Y-123380500D03*
X162270000Y-123380500D03*
X162778000Y-123380500D03*
X163286000Y-123380500D03*
X163794000Y-123380500D03*
X164302000Y-123380500D03*
X164810000Y-123380500D03*
X165318000Y-123380500D03*
X165826000Y-123380500D03*
X166334000Y-123380500D03*
X166842000Y-123380500D03*
X166842000Y-130619500D03*
X166334000Y-130619500D03*
X165826000Y-130619500D03*
X165318000Y-130619500D03*
X164810000Y-130619500D03*
X164302000Y-130619500D03*
X163794000Y-130619500D03*
X163286000Y-130619500D03*
X162778000Y-130619500D03*
X162270000Y-130619500D03*
X161762000Y-130619500D03*
X161254000Y-130619500D03*
X160746000Y-130619500D03*
X160238000Y-130619500D03*
X159730000Y-130619500D03*
X159222000Y-130619500D03*
X158714000Y-130619500D03*
X158206000Y-130619500D03*
X157698000Y-130619500D03*
X157190000Y-130619500D03*
X156682000Y-130619500D03*
X156174000Y-130619500D03*
X155666000Y-130619500D03*
X155158000Y-130619500D03*
D24*
X91000000Y-57400000D03*
X90050000Y-57400000D03*
X91950000Y-57400000D03*
X91950000Y-60100000D03*
X91000000Y-60100000D03*
X90050000Y-60100000D03*
X101750000Y-57150000D03*
X100800000Y-57150000D03*
X102700000Y-57150000D03*
X102700000Y-59850000D03*
X101750000Y-59850000D03*
X100800000Y-59850000D03*
X112000000Y-57150000D03*
X111050000Y-57150000D03*
X112950000Y-57150000D03*
X112950000Y-59850000D03*
X112000000Y-59850000D03*
X111050000Y-59850000D03*
X121750000Y-57150000D03*
X120800000Y-57150000D03*
X122700000Y-57150000D03*
X122700000Y-59850000D03*
X121750000Y-59850000D03*
X120800000Y-59850000D03*
D25*
X120750001Y-70731000D03*
D26*
X121769001Y-70000001D03*
X121769001Y-69499999D03*
X121769001Y-69000000D03*
X121769001Y-68500001D03*
X121769001Y-67999999D03*
D25*
X120750001Y-67269000D03*
X119249999Y-67269000D03*
D26*
X118230999Y-67999999D03*
X118230999Y-68500001D03*
X118230999Y-69000000D03*
X118230999Y-69499999D03*
X118230999Y-70000001D03*
D25*
X119249999Y-70731000D03*
D27*
X120000000Y-69000000D03*
G36*
G01*
X93703500Y-45915250D02*
X93703500Y-45584750D01*
G75*
G02*
X93843250Y-45445000I139750J0D01*
G01*
X94122750Y-45445000D01*
G75*
G02*
X94262500Y-45584750I0J-139750D01*
G01*
X94262500Y-45915250D01*
G75*
G02*
X94122750Y-46055000I-139750J0D01*
G01*
X93843250Y-46055000D01*
G75*
G02*
X93703500Y-45915250I0J139750D01*
G01*
G37*
G36*
G01*
X92737500Y-45915250D02*
X92737500Y-45584750D01*
G75*
G02*
X92877250Y-45445000I139750J0D01*
G01*
X93156750Y-45445000D01*
G75*
G02*
X93296500Y-45584750I0J-139750D01*
G01*
X93296500Y-45915250D01*
G75*
G02*
X93156750Y-46055000I-139750J0D01*
G01*
X92877250Y-46055000D01*
G75*
G02*
X92737500Y-45915250I0J139750D01*
G01*
G37*
G36*
G01*
X104703500Y-45915250D02*
X104703500Y-45584750D01*
G75*
G02*
X104843250Y-45445000I139750J0D01*
G01*
X105122750Y-45445000D01*
G75*
G02*
X105262500Y-45584750I0J-139750D01*
G01*
X105262500Y-45915250D01*
G75*
G02*
X105122750Y-46055000I-139750J0D01*
G01*
X104843250Y-46055000D01*
G75*
G02*
X104703500Y-45915250I0J139750D01*
G01*
G37*
G36*
G01*
X103737500Y-45915250D02*
X103737500Y-45584750D01*
G75*
G02*
X103877250Y-45445000I139750J0D01*
G01*
X104156750Y-45445000D01*
G75*
G02*
X104296500Y-45584750I0J-139750D01*
G01*
X104296500Y-45915250D01*
G75*
G02*
X104156750Y-46055000I-139750J0D01*
G01*
X103877250Y-46055000D01*
G75*
G02*
X103737500Y-45915250I0J139750D01*
G01*
G37*
G36*
G01*
X114453500Y-45915250D02*
X114453500Y-45584750D01*
G75*
G02*
X114593250Y-45445000I139750J0D01*
G01*
X114872750Y-45445000D01*
G75*
G02*
X115012500Y-45584750I0J-139750D01*
G01*
X115012500Y-45915250D01*
G75*
G02*
X114872750Y-46055000I-139750J0D01*
G01*
X114593250Y-46055000D01*
G75*
G02*
X114453500Y-45915250I0J139750D01*
G01*
G37*
G36*
G01*
X113487500Y-45915250D02*
X113487500Y-45584750D01*
G75*
G02*
X113627250Y-45445000I139750J0D01*
G01*
X113906750Y-45445000D01*
G75*
G02*
X114046500Y-45584750I0J-139750D01*
G01*
X114046500Y-45915250D01*
G75*
G02*
X113906750Y-46055000I-139750J0D01*
G01*
X113627250Y-46055000D01*
G75*
G02*
X113487500Y-45915250I0J139750D01*
G01*
G37*
G36*
G01*
X124953500Y-46165250D02*
X124953500Y-45834750D01*
G75*
G02*
X125093250Y-45695000I139750J0D01*
G01*
X125372750Y-45695000D01*
G75*
G02*
X125512500Y-45834750I0J-139750D01*
G01*
X125512500Y-46165250D01*
G75*
G02*
X125372750Y-46305000I-139750J0D01*
G01*
X125093250Y-46305000D01*
G75*
G02*
X124953500Y-46165250I0J139750D01*
G01*
G37*
G36*
G01*
X123987500Y-46165250D02*
X123987500Y-45834750D01*
G75*
G02*
X124127250Y-45695000I139750J0D01*
G01*
X124406750Y-45695000D01*
G75*
G02*
X124546500Y-45834750I0J-139750D01*
G01*
X124546500Y-46165250D01*
G75*
G02*
X124406750Y-46305000I-139750J0D01*
G01*
X124127250Y-46305000D01*
G75*
G02*
X123987500Y-46165250I0J139750D01*
G01*
G37*
G36*
G01*
X92165250Y-54796500D02*
X91834750Y-54796500D01*
G75*
G02*
X91695000Y-54656750I0J139750D01*
G01*
X91695000Y-54377250D01*
G75*
G02*
X91834750Y-54237500I139750J0D01*
G01*
X92165250Y-54237500D01*
G75*
G02*
X92305000Y-54377250I0J-139750D01*
G01*
X92305000Y-54656750D01*
G75*
G02*
X92165250Y-54796500I-139750J0D01*
G01*
G37*
G36*
G01*
X92165250Y-55762500D02*
X91834750Y-55762500D01*
G75*
G02*
X91695000Y-55622750I0J139750D01*
G01*
X91695000Y-55343250D01*
G75*
G02*
X91834750Y-55203500I139750J0D01*
G01*
X92165250Y-55203500D01*
G75*
G02*
X92305000Y-55343250I0J-139750D01*
G01*
X92305000Y-55622750D01*
G75*
G02*
X92165250Y-55762500I-139750J0D01*
G01*
G37*
G36*
G01*
X90165250Y-54796500D02*
X89834750Y-54796500D01*
G75*
G02*
X89695000Y-54656750I0J139750D01*
G01*
X89695000Y-54377250D01*
G75*
G02*
X89834750Y-54237500I139750J0D01*
G01*
X90165250Y-54237500D01*
G75*
G02*
X90305000Y-54377250I0J-139750D01*
G01*
X90305000Y-54656750D01*
G75*
G02*
X90165250Y-54796500I-139750J0D01*
G01*
G37*
G36*
G01*
X90165250Y-55762500D02*
X89834750Y-55762500D01*
G75*
G02*
X89695000Y-55622750I0J139750D01*
G01*
X89695000Y-55343250D01*
G75*
G02*
X89834750Y-55203500I139750J0D01*
G01*
X90165250Y-55203500D01*
G75*
G02*
X90305000Y-55343250I0J-139750D01*
G01*
X90305000Y-55622750D01*
G75*
G02*
X90165250Y-55762500I-139750J0D01*
G01*
G37*
G36*
G01*
X102915250Y-54796500D02*
X102584750Y-54796500D01*
G75*
G02*
X102445000Y-54656750I0J139750D01*
G01*
X102445000Y-54377250D01*
G75*
G02*
X102584750Y-54237500I139750J0D01*
G01*
X102915250Y-54237500D01*
G75*
G02*
X103055000Y-54377250I0J-139750D01*
G01*
X103055000Y-54656750D01*
G75*
G02*
X102915250Y-54796500I-139750J0D01*
G01*
G37*
G36*
G01*
X102915250Y-55762500D02*
X102584750Y-55762500D01*
G75*
G02*
X102445000Y-55622750I0J139750D01*
G01*
X102445000Y-55343250D01*
G75*
G02*
X102584750Y-55203500I139750J0D01*
G01*
X102915250Y-55203500D01*
G75*
G02*
X103055000Y-55343250I0J-139750D01*
G01*
X103055000Y-55622750D01*
G75*
G02*
X102915250Y-55762500I-139750J0D01*
G01*
G37*
G36*
G01*
X100915250Y-54796500D02*
X100584750Y-54796500D01*
G75*
G02*
X100445000Y-54656750I0J139750D01*
G01*
X100445000Y-54377250D01*
G75*
G02*
X100584750Y-54237500I139750J0D01*
G01*
X100915250Y-54237500D01*
G75*
G02*
X101055000Y-54377250I0J-139750D01*
G01*
X101055000Y-54656750D01*
G75*
G02*
X100915250Y-54796500I-139750J0D01*
G01*
G37*
G36*
G01*
X100915250Y-55762500D02*
X100584750Y-55762500D01*
G75*
G02*
X100445000Y-55622750I0J139750D01*
G01*
X100445000Y-55343250D01*
G75*
G02*
X100584750Y-55203500I139750J0D01*
G01*
X100915250Y-55203500D01*
G75*
G02*
X101055000Y-55343250I0J-139750D01*
G01*
X101055000Y-55622750D01*
G75*
G02*
X100915250Y-55762500I-139750J0D01*
G01*
G37*
G36*
G01*
X113165250Y-54796500D02*
X112834750Y-54796500D01*
G75*
G02*
X112695000Y-54656750I0J139750D01*
G01*
X112695000Y-54377250D01*
G75*
G02*
X112834750Y-54237500I139750J0D01*
G01*
X113165250Y-54237500D01*
G75*
G02*
X113305000Y-54377250I0J-139750D01*
G01*
X113305000Y-54656750D01*
G75*
G02*
X113165250Y-54796500I-139750J0D01*
G01*
G37*
G36*
G01*
X113165250Y-55762500D02*
X112834750Y-55762500D01*
G75*
G02*
X112695000Y-55622750I0J139750D01*
G01*
X112695000Y-55343250D01*
G75*
G02*
X112834750Y-55203500I139750J0D01*
G01*
X113165250Y-55203500D01*
G75*
G02*
X113305000Y-55343250I0J-139750D01*
G01*
X113305000Y-55622750D01*
G75*
G02*
X113165250Y-55762500I-139750J0D01*
G01*
G37*
G36*
G01*
X111165250Y-54796500D02*
X110834750Y-54796500D01*
G75*
G02*
X110695000Y-54656750I0J139750D01*
G01*
X110695000Y-54377250D01*
G75*
G02*
X110834750Y-54237500I139750J0D01*
G01*
X111165250Y-54237500D01*
G75*
G02*
X111305000Y-54377250I0J-139750D01*
G01*
X111305000Y-54656750D01*
G75*
G02*
X111165250Y-54796500I-139750J0D01*
G01*
G37*
G36*
G01*
X111165250Y-55762500D02*
X110834750Y-55762500D01*
G75*
G02*
X110695000Y-55622750I0J139750D01*
G01*
X110695000Y-55343250D01*
G75*
G02*
X110834750Y-55203500I139750J0D01*
G01*
X111165250Y-55203500D01*
G75*
G02*
X111305000Y-55343250I0J-139750D01*
G01*
X111305000Y-55622750D01*
G75*
G02*
X111165250Y-55762500I-139750J0D01*
G01*
G37*
G36*
G01*
X122915250Y-54796500D02*
X122584750Y-54796500D01*
G75*
G02*
X122445000Y-54656750I0J139750D01*
G01*
X122445000Y-54377250D01*
G75*
G02*
X122584750Y-54237500I139750J0D01*
G01*
X122915250Y-54237500D01*
G75*
G02*
X123055000Y-54377250I0J-139750D01*
G01*
X123055000Y-54656750D01*
G75*
G02*
X122915250Y-54796500I-139750J0D01*
G01*
G37*
G36*
G01*
X122915250Y-55762500D02*
X122584750Y-55762500D01*
G75*
G02*
X122445000Y-55622750I0J139750D01*
G01*
X122445000Y-55343250D01*
G75*
G02*
X122584750Y-55203500I139750J0D01*
G01*
X122915250Y-55203500D01*
G75*
G02*
X123055000Y-55343250I0J-139750D01*
G01*
X123055000Y-55622750D01*
G75*
G02*
X122915250Y-55762500I-139750J0D01*
G01*
G37*
G36*
G01*
X120915250Y-54796500D02*
X120584750Y-54796500D01*
G75*
G02*
X120445000Y-54656750I0J139750D01*
G01*
X120445000Y-54377250D01*
G75*
G02*
X120584750Y-54237500I139750J0D01*
G01*
X120915250Y-54237500D01*
G75*
G02*
X121055000Y-54377250I0J-139750D01*
G01*
X121055000Y-54656750D01*
G75*
G02*
X120915250Y-54796500I-139750J0D01*
G01*
G37*
G36*
G01*
X120915250Y-55762500D02*
X120584750Y-55762500D01*
G75*
G02*
X120445000Y-55622750I0J139750D01*
G01*
X120445000Y-55343250D01*
G75*
G02*
X120584750Y-55203500I139750J0D01*
G01*
X120915250Y-55203500D01*
G75*
G02*
X121055000Y-55343250I0J-139750D01*
G01*
X121055000Y-55622750D01*
G75*
G02*
X120915250Y-55762500I-139750J0D01*
G01*
G37*
D28*
X121750000Y-51000000D03*
X122700000Y-53000000D03*
X120800000Y-53000000D03*
X91000000Y-51000000D03*
X91950000Y-53000000D03*
X90050000Y-53000000D03*
X101750000Y-51000000D03*
X102700000Y-53000000D03*
X100800000Y-53000000D03*
X112000000Y-51000000D03*
X112950000Y-53000000D03*
X111050000Y-53000000D03*
D19*
X91142800Y-48500000D03*
X94857200Y-48500000D03*
X101642800Y-48500000D03*
X105357200Y-48500000D03*
X111892800Y-48500000D03*
X115607200Y-48500000D03*
X121807800Y-48483000D03*
X125522200Y-48483000D03*
G36*
G01*
X92375000Y-45437500D02*
X92375000Y-46062500D01*
G75*
G02*
X92187500Y-46250000I-187500J0D01*
G01*
X91812500Y-46250000D01*
G75*
G02*
X91625000Y-46062500I0J187500D01*
G01*
X91625000Y-45437500D01*
G75*
G02*
X91812500Y-45250000I187500J0D01*
G01*
X92187500Y-45250000D01*
G75*
G02*
X92375000Y-45437500I0J-187500D01*
G01*
G37*
G36*
G01*
X90875000Y-45437500D02*
X90875000Y-46062500D01*
G75*
G02*
X90687500Y-46250000I-187500J0D01*
G01*
X90312500Y-46250000D01*
G75*
G02*
X90125000Y-46062500I0J187500D01*
G01*
X90125000Y-45437500D01*
G75*
G02*
X90312500Y-45250000I187500J0D01*
G01*
X90687500Y-45250000D01*
G75*
G02*
X90875000Y-45437500I0J-187500D01*
G01*
G37*
G36*
G01*
X103125000Y-45437500D02*
X103125000Y-46062500D01*
G75*
G02*
X102937500Y-46250000I-187500J0D01*
G01*
X102562500Y-46250000D01*
G75*
G02*
X102375000Y-46062500I0J187500D01*
G01*
X102375000Y-45437500D01*
G75*
G02*
X102562500Y-45250000I187500J0D01*
G01*
X102937500Y-45250000D01*
G75*
G02*
X103125000Y-45437500I0J-187500D01*
G01*
G37*
G36*
G01*
X101625000Y-45437500D02*
X101625000Y-46062500D01*
G75*
G02*
X101437500Y-46250000I-187500J0D01*
G01*
X101062500Y-46250000D01*
G75*
G02*
X100875000Y-46062500I0J187500D01*
G01*
X100875000Y-45437500D01*
G75*
G02*
X101062500Y-45250000I187500J0D01*
G01*
X101437500Y-45250000D01*
G75*
G02*
X101625000Y-45437500I0J-187500D01*
G01*
G37*
G36*
G01*
X113125000Y-45437500D02*
X113125000Y-46062500D01*
G75*
G02*
X112937500Y-46250000I-187500J0D01*
G01*
X112562500Y-46250000D01*
G75*
G02*
X112375000Y-46062500I0J187500D01*
G01*
X112375000Y-45437500D01*
G75*
G02*
X112562500Y-45250000I187500J0D01*
G01*
X112937500Y-45250000D01*
G75*
G02*
X113125000Y-45437500I0J-187500D01*
G01*
G37*
G36*
G01*
X111625000Y-45437500D02*
X111625000Y-46062500D01*
G75*
G02*
X111437500Y-46250000I-187500J0D01*
G01*
X111062500Y-46250000D01*
G75*
G02*
X110875000Y-46062500I0J187500D01*
G01*
X110875000Y-45437500D01*
G75*
G02*
X111062500Y-45250000I187500J0D01*
G01*
X111437500Y-45250000D01*
G75*
G02*
X111625000Y-45437500I0J-187500D01*
G01*
G37*
G36*
G01*
X123375000Y-45687500D02*
X123375000Y-46312500D01*
G75*
G02*
X123187500Y-46500000I-187500J0D01*
G01*
X122812500Y-46500000D01*
G75*
G02*
X122625000Y-46312500I0J187500D01*
G01*
X122625000Y-45687500D01*
G75*
G02*
X122812500Y-45500000I187500J0D01*
G01*
X123187500Y-45500000D01*
G75*
G02*
X123375000Y-45687500I0J-187500D01*
G01*
G37*
G36*
G01*
X121875000Y-45687500D02*
X121875000Y-46312500D01*
G75*
G02*
X121687500Y-46500000I-187500J0D01*
G01*
X121312500Y-46500000D01*
G75*
G02*
X121125000Y-46312500I0J187500D01*
G01*
X121125000Y-45687500D01*
G75*
G02*
X121312500Y-45500000I187500J0D01*
G01*
X121687500Y-45500000D01*
G75*
G02*
X121875000Y-45687500I0J-187500D01*
G01*
G37*
G36*
G01*
X165010746Y-119722953D02*
X164777047Y-119489254D01*
G75*
G02*
X164777047Y-119291618I98818J98818D01*
G01*
X164974684Y-119093981D01*
G75*
G02*
X165172320Y-119093981I98818J-98818D01*
G01*
X165406019Y-119327680D01*
G75*
G02*
X165406019Y-119525316I-98818J-98818D01*
G01*
X165208382Y-119722953D01*
G75*
G02*
X165010746Y-119722953I-98818J98818D01*
G01*
G37*
G36*
G01*
X164327680Y-120406019D02*
X164093981Y-120172320D01*
G75*
G02*
X164093981Y-119974684I98818J98818D01*
G01*
X164291618Y-119777047D01*
G75*
G02*
X164489254Y-119777047I98818J-98818D01*
G01*
X164722953Y-120010746D01*
G75*
G02*
X164722953Y-120208382I-98818J-98818D01*
G01*
X164525316Y-120406019D01*
G75*
G02*
X164327680Y-120406019I-98818J98818D01*
G01*
G37*
G36*
G01*
X157272953Y-120339254D02*
X157039254Y-120572953D01*
G75*
G02*
X156841618Y-120572953I-98818J98818D01*
G01*
X156643981Y-120375316D01*
G75*
G02*
X156643981Y-120177680I98818J98818D01*
G01*
X156877680Y-119943981D01*
G75*
G02*
X157075316Y-119943981I98818J-98818D01*
G01*
X157272953Y-120141618D01*
G75*
G02*
X157272953Y-120339254I-98818J-98818D01*
G01*
G37*
G36*
G01*
X157956019Y-121022320D02*
X157722320Y-121256019D01*
G75*
G02*
X157524684Y-121256019I-98818J98818D01*
G01*
X157327047Y-121058382D01*
G75*
G02*
X157327047Y-120860746I98818J98818D01*
G01*
X157560746Y-120627047D01*
G75*
G02*
X157758382Y-120627047I98818J-98818D01*
G01*
X157956019Y-120824684D01*
G75*
G02*
X157956019Y-121022320I-98818J-98818D01*
G01*
G37*
G36*
G01*
X156489254Y-133777047D02*
X156722953Y-134010746D01*
G75*
G02*
X156722953Y-134208382I-98818J-98818D01*
G01*
X156525316Y-134406019D01*
G75*
G02*
X156327680Y-134406019I-98818J98818D01*
G01*
X156093981Y-134172320D01*
G75*
G02*
X156093981Y-133974684I98818J98818D01*
G01*
X156291618Y-133777047D01*
G75*
G02*
X156489254Y-133777047I98818J-98818D01*
G01*
G37*
G36*
G01*
X157172320Y-133093981D02*
X157406019Y-133327680D01*
G75*
G02*
X157406019Y-133525316I-98818J-98818D01*
G01*
X157208382Y-133722953D01*
G75*
G02*
X157010746Y-133722953I-98818J98818D01*
G01*
X156777047Y-133489254D01*
G75*
G02*
X156777047Y-133291618I98818J98818D01*
G01*
X156974684Y-133093981D01*
G75*
G02*
X157172320Y-133093981I98818J-98818D01*
G01*
G37*
G36*
G01*
X165027047Y-134010746D02*
X165260746Y-133777047D01*
G75*
G02*
X165458382Y-133777047I98818J-98818D01*
G01*
X165656019Y-133974684D01*
G75*
G02*
X165656019Y-134172320I-98818J-98818D01*
G01*
X165422320Y-134406019D01*
G75*
G02*
X165224684Y-134406019I-98818J98818D01*
G01*
X165027047Y-134208382D01*
G75*
G02*
X165027047Y-134010746I98818J98818D01*
G01*
G37*
G36*
G01*
X164343981Y-133327680D02*
X164577680Y-133093981D01*
G75*
G02*
X164775316Y-133093981I98818J-98818D01*
G01*
X164972953Y-133291618D01*
G75*
G02*
X164972953Y-133489254I-98818J-98818D01*
G01*
X164739254Y-133722953D01*
G75*
G02*
X164541618Y-133722953I-98818J98818D01*
G01*
X164343981Y-133525316D01*
G75*
G02*
X164343981Y-133327680I98818J98818D01*
G01*
G37*
G36*
G01*
X88737500Y-61915250D02*
X88737500Y-61584750D01*
G75*
G02*
X88877250Y-61445000I139750J0D01*
G01*
X89156750Y-61445000D01*
G75*
G02*
X89296500Y-61584750I0J-139750D01*
G01*
X89296500Y-61915250D01*
G75*
G02*
X89156750Y-62055000I-139750J0D01*
G01*
X88877250Y-62055000D01*
G75*
G02*
X88737500Y-61915250I0J139750D01*
G01*
G37*
G36*
G01*
X89703500Y-61915250D02*
X89703500Y-61584750D01*
G75*
G02*
X89843250Y-61445000I139750J0D01*
G01*
X90122750Y-61445000D01*
G75*
G02*
X90262500Y-61584750I0J-139750D01*
G01*
X90262500Y-61915250D01*
G75*
G02*
X90122750Y-62055000I-139750J0D01*
G01*
X89843250Y-62055000D01*
G75*
G02*
X89703500Y-61915250I0J139750D01*
G01*
G37*
G36*
G01*
X109737500Y-61665250D02*
X109737500Y-61334750D01*
G75*
G02*
X109877250Y-61195000I139750J0D01*
G01*
X110156750Y-61195000D01*
G75*
G02*
X110296500Y-61334750I0J-139750D01*
G01*
X110296500Y-61665250D01*
G75*
G02*
X110156750Y-61805000I-139750J0D01*
G01*
X109877250Y-61805000D01*
G75*
G02*
X109737500Y-61665250I0J139750D01*
G01*
G37*
G36*
G01*
X110703500Y-61665250D02*
X110703500Y-61334750D01*
G75*
G02*
X110843250Y-61195000I139750J0D01*
G01*
X111122750Y-61195000D01*
G75*
G02*
X111262500Y-61334750I0J-139750D01*
G01*
X111262500Y-61665250D01*
G75*
G02*
X111122750Y-61805000I-139750J0D01*
G01*
X110843250Y-61805000D01*
G75*
G02*
X110703500Y-61665250I0J139750D01*
G01*
G37*
G36*
G01*
X119470500Y-61665250D02*
X119470500Y-61334750D01*
G75*
G02*
X119610250Y-61195000I139750J0D01*
G01*
X119889750Y-61195000D01*
G75*
G02*
X120029500Y-61334750I0J-139750D01*
G01*
X120029500Y-61665250D01*
G75*
G02*
X119889750Y-61805000I-139750J0D01*
G01*
X119610250Y-61805000D01*
G75*
G02*
X119470500Y-61665250I0J139750D01*
G01*
G37*
G36*
G01*
X120436500Y-61665250D02*
X120436500Y-61334750D01*
G75*
G02*
X120576250Y-61195000I139750J0D01*
G01*
X120855750Y-61195000D01*
G75*
G02*
X120995500Y-61334750I0J-139750D01*
G01*
X120995500Y-61665250D01*
G75*
G02*
X120855750Y-61805000I-139750J0D01*
G01*
X120576250Y-61805000D01*
G75*
G02*
X120436500Y-61665250I0J139750D01*
G01*
G37*
G36*
G01*
X99504500Y-61665250D02*
X99504500Y-61334750D01*
G75*
G02*
X99644250Y-61195000I139750J0D01*
G01*
X99923750Y-61195000D01*
G75*
G02*
X100063500Y-61334750I0J-139750D01*
G01*
X100063500Y-61665250D01*
G75*
G02*
X99923750Y-61805000I-139750J0D01*
G01*
X99644250Y-61805000D01*
G75*
G02*
X99504500Y-61665250I0J139750D01*
G01*
G37*
G36*
G01*
X100470500Y-61665250D02*
X100470500Y-61334750D01*
G75*
G02*
X100610250Y-61195000I139750J0D01*
G01*
X100889750Y-61195000D01*
G75*
G02*
X101029500Y-61334750I0J-139750D01*
G01*
X101029500Y-61665250D01*
G75*
G02*
X100889750Y-61805000I-139750J0D01*
G01*
X100610250Y-61805000D01*
G75*
G02*
X100470500Y-61665250I0J139750D01*
G01*
G37*
G36*
G01*
X119512500Y-72084750D02*
X119512500Y-72415250D01*
G75*
G02*
X119372750Y-72555000I-139750J0D01*
G01*
X119093250Y-72555000D01*
G75*
G02*
X118953500Y-72415250I0J139750D01*
G01*
X118953500Y-72084750D01*
G75*
G02*
X119093250Y-71945000I139750J0D01*
G01*
X119372750Y-71945000D01*
G75*
G02*
X119512500Y-72084750I0J-139750D01*
G01*
G37*
G36*
G01*
X118546500Y-72084750D02*
X118546500Y-72415250D01*
G75*
G02*
X118406750Y-72555000I-139750J0D01*
G01*
X118127250Y-72555000D01*
G75*
G02*
X117987500Y-72415250I0J139750D01*
G01*
X117987500Y-72084750D01*
G75*
G02*
X118127250Y-71945000I139750J0D01*
G01*
X118406750Y-71945000D01*
G75*
G02*
X118546500Y-72084750I0J-139750D01*
G01*
G37*
G36*
G01*
X237679500Y-63237250D02*
X237679500Y-62906750D01*
G75*
G02*
X237819250Y-62767000I139750J0D01*
G01*
X238098750Y-62767000D01*
G75*
G02*
X238238500Y-62906750I0J-139750D01*
G01*
X238238500Y-63237250D01*
G75*
G02*
X238098750Y-63377000I-139750J0D01*
G01*
X237819250Y-63377000D01*
G75*
G02*
X237679500Y-63237250I0J139750D01*
G01*
G37*
G36*
G01*
X238645500Y-63237250D02*
X238645500Y-62906750D01*
G75*
G02*
X238785250Y-62767000I139750J0D01*
G01*
X239064750Y-62767000D01*
G75*
G02*
X239204500Y-62906750I0J-139750D01*
G01*
X239204500Y-63237250D01*
G75*
G02*
X239064750Y-63377000I-139750J0D01*
G01*
X238785250Y-63377000D01*
G75*
G02*
X238645500Y-63237250I0J139750D01*
G01*
G37*
G36*
G01*
X237704500Y-60713250D02*
X237704500Y-60382750D01*
G75*
G02*
X237844250Y-60243000I139750J0D01*
G01*
X238123750Y-60243000D01*
G75*
G02*
X238263500Y-60382750I0J-139750D01*
G01*
X238263500Y-60713250D01*
G75*
G02*
X238123750Y-60853000I-139750J0D01*
G01*
X237844250Y-60853000D01*
G75*
G02*
X237704500Y-60713250I0J139750D01*
G01*
G37*
G36*
G01*
X238670500Y-60713250D02*
X238670500Y-60382750D01*
G75*
G02*
X238810250Y-60243000I139750J0D01*
G01*
X239089750Y-60243000D01*
G75*
G02*
X239229500Y-60382750I0J-139750D01*
G01*
X239229500Y-60713250D01*
G75*
G02*
X239089750Y-60853000I-139750J0D01*
G01*
X238810250Y-60853000D01*
G75*
G02*
X238670500Y-60713250I0J139750D01*
G01*
G37*
G36*
G01*
X237704500Y-65761250D02*
X237704500Y-65430750D01*
G75*
G02*
X237844250Y-65291000I139750J0D01*
G01*
X238123750Y-65291000D01*
G75*
G02*
X238263500Y-65430750I0J-139750D01*
G01*
X238263500Y-65761250D01*
G75*
G02*
X238123750Y-65901000I-139750J0D01*
G01*
X237844250Y-65901000D01*
G75*
G02*
X237704500Y-65761250I0J139750D01*
G01*
G37*
G36*
G01*
X238670500Y-65761250D02*
X238670500Y-65430750D01*
G75*
G02*
X238810250Y-65291000I139750J0D01*
G01*
X239089750Y-65291000D01*
G75*
G02*
X239229500Y-65430750I0J-139750D01*
G01*
X239229500Y-65761250D01*
G75*
G02*
X239089750Y-65901000I-139750J0D01*
G01*
X238810250Y-65901000D01*
G75*
G02*
X238670500Y-65761250I0J139750D01*
G01*
G37*
G36*
G01*
X139737500Y-45915250D02*
X139737500Y-45584750D01*
G75*
G02*
X139877250Y-45445000I139750J0D01*
G01*
X140156750Y-45445000D01*
G75*
G02*
X140296500Y-45584750I0J-139750D01*
G01*
X140296500Y-45915250D01*
G75*
G02*
X140156750Y-46055000I-139750J0D01*
G01*
X139877250Y-46055000D01*
G75*
G02*
X139737500Y-45915250I0J139750D01*
G01*
G37*
G36*
G01*
X140703500Y-45915250D02*
X140703500Y-45584750D01*
G75*
G02*
X140843250Y-45445000I139750J0D01*
G01*
X141122750Y-45445000D01*
G75*
G02*
X141262500Y-45584750I0J-139750D01*
G01*
X141262500Y-45915250D01*
G75*
G02*
X141122750Y-46055000I-139750J0D01*
G01*
X140843250Y-46055000D01*
G75*
G02*
X140703500Y-45915250I0J139750D01*
G01*
G37*
G36*
G01*
X169737500Y-45915250D02*
X169737500Y-45584750D01*
G75*
G02*
X169877250Y-45445000I139750J0D01*
G01*
X170156750Y-45445000D01*
G75*
G02*
X170296500Y-45584750I0J-139750D01*
G01*
X170296500Y-45915250D01*
G75*
G02*
X170156750Y-46055000I-139750J0D01*
G01*
X169877250Y-46055000D01*
G75*
G02*
X169737500Y-45915250I0J139750D01*
G01*
G37*
G36*
G01*
X170703500Y-45915250D02*
X170703500Y-45584750D01*
G75*
G02*
X170843250Y-45445000I139750J0D01*
G01*
X171122750Y-45445000D01*
G75*
G02*
X171262500Y-45584750I0J-139750D01*
G01*
X171262500Y-45915250D01*
G75*
G02*
X171122750Y-46055000I-139750J0D01*
G01*
X170843250Y-46055000D01*
G75*
G02*
X170703500Y-45915250I0J139750D01*
G01*
G37*
G36*
G01*
X237704500Y-68285250D02*
X237704500Y-67954750D01*
G75*
G02*
X237844250Y-67815000I139750J0D01*
G01*
X238123750Y-67815000D01*
G75*
G02*
X238263500Y-67954750I0J-139750D01*
G01*
X238263500Y-68285250D01*
G75*
G02*
X238123750Y-68425000I-139750J0D01*
G01*
X237844250Y-68425000D01*
G75*
G02*
X237704500Y-68285250I0J139750D01*
G01*
G37*
G36*
G01*
X238670500Y-68285250D02*
X238670500Y-67954750D01*
G75*
G02*
X238810250Y-67815000I139750J0D01*
G01*
X239089750Y-67815000D01*
G75*
G02*
X239229500Y-67954750I0J-139750D01*
G01*
X239229500Y-68285250D01*
G75*
G02*
X239089750Y-68425000I-139750J0D01*
G01*
X238810250Y-68425000D01*
G75*
G02*
X238670500Y-68285250I0J139750D01*
G01*
G37*
G36*
G01*
X149737500Y-45915250D02*
X149737500Y-45584750D01*
G75*
G02*
X149877250Y-45445000I139750J0D01*
G01*
X150156750Y-45445000D01*
G75*
G02*
X150296500Y-45584750I0J-139750D01*
G01*
X150296500Y-45915250D01*
G75*
G02*
X150156750Y-46055000I-139750J0D01*
G01*
X149877250Y-46055000D01*
G75*
G02*
X149737500Y-45915250I0J139750D01*
G01*
G37*
G36*
G01*
X150703500Y-45915250D02*
X150703500Y-45584750D01*
G75*
G02*
X150843250Y-45445000I139750J0D01*
G01*
X151122750Y-45445000D01*
G75*
G02*
X151262500Y-45584750I0J-139750D01*
G01*
X151262500Y-45915250D01*
G75*
G02*
X151122750Y-46055000I-139750J0D01*
G01*
X150843250Y-46055000D01*
G75*
G02*
X150703500Y-45915250I0J139750D01*
G01*
G37*
G36*
G01*
X159737500Y-45915250D02*
X159737500Y-45584750D01*
G75*
G02*
X159877250Y-45445000I139750J0D01*
G01*
X160156750Y-45445000D01*
G75*
G02*
X160296500Y-45584750I0J-139750D01*
G01*
X160296500Y-45915250D01*
G75*
G02*
X160156750Y-46055000I-139750J0D01*
G01*
X159877250Y-46055000D01*
G75*
G02*
X159737500Y-45915250I0J139750D01*
G01*
G37*
G36*
G01*
X160703500Y-45915250D02*
X160703500Y-45584750D01*
G75*
G02*
X160843250Y-45445000I139750J0D01*
G01*
X161122750Y-45445000D01*
G75*
G02*
X161262500Y-45584750I0J-139750D01*
G01*
X161262500Y-45915250D01*
G75*
G02*
X161122750Y-46055000I-139750J0D01*
G01*
X160843250Y-46055000D01*
G75*
G02*
X160703500Y-45915250I0J139750D01*
G01*
G37*
G36*
G01*
X179737500Y-46665250D02*
X179737500Y-46334750D01*
G75*
G02*
X179877250Y-46195000I139750J0D01*
G01*
X180156750Y-46195000D01*
G75*
G02*
X180296500Y-46334750I0J-139750D01*
G01*
X180296500Y-46665250D01*
G75*
G02*
X180156750Y-46805000I-139750J0D01*
G01*
X179877250Y-46805000D01*
G75*
G02*
X179737500Y-46665250I0J139750D01*
G01*
G37*
G36*
G01*
X180703500Y-46665250D02*
X180703500Y-46334750D01*
G75*
G02*
X180843250Y-46195000I139750J0D01*
G01*
X181122750Y-46195000D01*
G75*
G02*
X181262500Y-46334750I0J-139750D01*
G01*
X181262500Y-46665250D01*
G75*
G02*
X181122750Y-46805000I-139750J0D01*
G01*
X180843250Y-46805000D01*
G75*
G02*
X180703500Y-46665250I0J139750D01*
G01*
G37*
G36*
G01*
X194737500Y-46165250D02*
X194737500Y-45834750D01*
G75*
G02*
X194877250Y-45695000I139750J0D01*
G01*
X195156750Y-45695000D01*
G75*
G02*
X195296500Y-45834750I0J-139750D01*
G01*
X195296500Y-46165250D01*
G75*
G02*
X195156750Y-46305000I-139750J0D01*
G01*
X194877250Y-46305000D01*
G75*
G02*
X194737500Y-46165250I0J139750D01*
G01*
G37*
G36*
G01*
X195703500Y-46165250D02*
X195703500Y-45834750D01*
G75*
G02*
X195843250Y-45695000I139750J0D01*
G01*
X196122750Y-45695000D01*
G75*
G02*
X196262500Y-45834750I0J-139750D01*
G01*
X196262500Y-46165250D01*
G75*
G02*
X196122750Y-46305000I-139750J0D01*
G01*
X195843250Y-46305000D01*
G75*
G02*
X195703500Y-46165250I0J139750D01*
G01*
G37*
G36*
G01*
X204737500Y-46165250D02*
X204737500Y-45834750D01*
G75*
G02*
X204877250Y-45695000I139750J0D01*
G01*
X205156750Y-45695000D01*
G75*
G02*
X205296500Y-45834750I0J-139750D01*
G01*
X205296500Y-46165250D01*
G75*
G02*
X205156750Y-46305000I-139750J0D01*
G01*
X204877250Y-46305000D01*
G75*
G02*
X204737500Y-46165250I0J139750D01*
G01*
G37*
G36*
G01*
X205703500Y-46165250D02*
X205703500Y-45834750D01*
G75*
G02*
X205843250Y-45695000I139750J0D01*
G01*
X206122750Y-45695000D01*
G75*
G02*
X206262500Y-45834750I0J-139750D01*
G01*
X206262500Y-46165250D01*
G75*
G02*
X206122750Y-46305000I-139750J0D01*
G01*
X205843250Y-46305000D01*
G75*
G02*
X205703500Y-46165250I0J139750D01*
G01*
G37*
G36*
G01*
X214737500Y-46165250D02*
X214737500Y-45834750D01*
G75*
G02*
X214877250Y-45695000I139750J0D01*
G01*
X215156750Y-45695000D01*
G75*
G02*
X215296500Y-45834750I0J-139750D01*
G01*
X215296500Y-46165250D01*
G75*
G02*
X215156750Y-46305000I-139750J0D01*
G01*
X214877250Y-46305000D01*
G75*
G02*
X214737500Y-46165250I0J139750D01*
G01*
G37*
G36*
G01*
X215703500Y-46165250D02*
X215703500Y-45834750D01*
G75*
G02*
X215843250Y-45695000I139750J0D01*
G01*
X216122750Y-45695000D01*
G75*
G02*
X216262500Y-45834750I0J-139750D01*
G01*
X216262500Y-46165250D01*
G75*
G02*
X216122750Y-46305000I-139750J0D01*
G01*
X215843250Y-46305000D01*
G75*
G02*
X215703500Y-46165250I0J139750D01*
G01*
G37*
G36*
G01*
X224737500Y-46165250D02*
X224737500Y-45834750D01*
G75*
G02*
X224877250Y-45695000I139750J0D01*
G01*
X225156750Y-45695000D01*
G75*
G02*
X225296500Y-45834750I0J-139750D01*
G01*
X225296500Y-46165250D01*
G75*
G02*
X225156750Y-46305000I-139750J0D01*
G01*
X224877250Y-46305000D01*
G75*
G02*
X224737500Y-46165250I0J139750D01*
G01*
G37*
G36*
G01*
X225703500Y-46165250D02*
X225703500Y-45834750D01*
G75*
G02*
X225843250Y-45695000I139750J0D01*
G01*
X226122750Y-45695000D01*
G75*
G02*
X226262500Y-45834750I0J-139750D01*
G01*
X226262500Y-46165250D01*
G75*
G02*
X226122750Y-46305000I-139750J0D01*
G01*
X225843250Y-46305000D01*
G75*
G02*
X225703500Y-46165250I0J139750D01*
G01*
G37*
G36*
G01*
X234737500Y-46665250D02*
X234737500Y-46334750D01*
G75*
G02*
X234877250Y-46195000I139750J0D01*
G01*
X235156750Y-46195000D01*
G75*
G02*
X235296500Y-46334750I0J-139750D01*
G01*
X235296500Y-46665250D01*
G75*
G02*
X235156750Y-46805000I-139750J0D01*
G01*
X234877250Y-46805000D01*
G75*
G02*
X234737500Y-46665250I0J139750D01*
G01*
G37*
G36*
G01*
X235703500Y-46665250D02*
X235703500Y-46334750D01*
G75*
G02*
X235843250Y-46195000I139750J0D01*
G01*
X236122750Y-46195000D01*
G75*
G02*
X236262500Y-46334750I0J-139750D01*
G01*
X236262500Y-46665250D01*
G75*
G02*
X236122750Y-46805000I-139750J0D01*
G01*
X235843250Y-46805000D01*
G75*
G02*
X235703500Y-46665250I0J139750D01*
G01*
G37*
G36*
G01*
X244132000Y-63384500D02*
X244132000Y-62759500D01*
G75*
G02*
X244319500Y-62572000I187500J0D01*
G01*
X244694500Y-62572000D01*
G75*
G02*
X244882000Y-62759500I0J-187500D01*
G01*
X244882000Y-63384500D01*
G75*
G02*
X244694500Y-63572000I-187500J0D01*
G01*
X244319500Y-63572000D01*
G75*
G02*
X244132000Y-63384500I0J187500D01*
G01*
G37*
G36*
G01*
X242632000Y-63384500D02*
X242632000Y-62759500D01*
G75*
G02*
X242819500Y-62572000I187500J0D01*
G01*
X243194500Y-62572000D01*
G75*
G02*
X243382000Y-62759500I0J-187500D01*
G01*
X243382000Y-63384500D01*
G75*
G02*
X243194500Y-63572000I-187500J0D01*
G01*
X242819500Y-63572000D01*
G75*
G02*
X242632000Y-63384500I0J187500D01*
G01*
G37*
G36*
G01*
X244132000Y-60860500D02*
X244132000Y-60235500D01*
G75*
G02*
X244319500Y-60048000I187500J0D01*
G01*
X244694500Y-60048000D01*
G75*
G02*
X244882000Y-60235500I0J-187500D01*
G01*
X244882000Y-60860500D01*
G75*
G02*
X244694500Y-61048000I-187500J0D01*
G01*
X244319500Y-61048000D01*
G75*
G02*
X244132000Y-60860500I0J187500D01*
G01*
G37*
G36*
G01*
X242632000Y-60860500D02*
X242632000Y-60235500D01*
G75*
G02*
X242819500Y-60048000I187500J0D01*
G01*
X243194500Y-60048000D01*
G75*
G02*
X243382000Y-60235500I0J-187500D01*
G01*
X243382000Y-60860500D01*
G75*
G02*
X243194500Y-61048000I-187500J0D01*
G01*
X242819500Y-61048000D01*
G75*
G02*
X242632000Y-60860500I0J187500D01*
G01*
G37*
G36*
G01*
X244132000Y-65908500D02*
X244132000Y-65283500D01*
G75*
G02*
X244319500Y-65096000I187500J0D01*
G01*
X244694500Y-65096000D01*
G75*
G02*
X244882000Y-65283500I0J-187500D01*
G01*
X244882000Y-65908500D01*
G75*
G02*
X244694500Y-66096000I-187500J0D01*
G01*
X244319500Y-66096000D01*
G75*
G02*
X244132000Y-65908500I0J187500D01*
G01*
G37*
G36*
G01*
X242632000Y-65908500D02*
X242632000Y-65283500D01*
G75*
G02*
X242819500Y-65096000I187500J0D01*
G01*
X243194500Y-65096000D01*
G75*
G02*
X243382000Y-65283500I0J-187500D01*
G01*
X243382000Y-65908500D01*
G75*
G02*
X243194500Y-66096000I-187500J0D01*
G01*
X242819500Y-66096000D01*
G75*
G02*
X242632000Y-65908500I0J187500D01*
G01*
G37*
G36*
G01*
X244132000Y-68432500D02*
X244132000Y-67807500D01*
G75*
G02*
X244319500Y-67620000I187500J0D01*
G01*
X244694500Y-67620000D01*
G75*
G02*
X244882000Y-67807500I0J-187500D01*
G01*
X244882000Y-68432500D01*
G75*
G02*
X244694500Y-68620000I-187500J0D01*
G01*
X244319500Y-68620000D01*
G75*
G02*
X244132000Y-68432500I0J187500D01*
G01*
G37*
G36*
G01*
X242632000Y-68432500D02*
X242632000Y-67807500D01*
G75*
G02*
X242819500Y-67620000I187500J0D01*
G01*
X243194500Y-67620000D01*
G75*
G02*
X243382000Y-67807500I0J-187500D01*
G01*
X243382000Y-68432500D01*
G75*
G02*
X243194500Y-68620000I-187500J0D01*
G01*
X242819500Y-68620000D01*
G75*
G02*
X242632000Y-68432500I0J187500D01*
G01*
G37*
D20*
X58000000Y-114755900D03*
X58000000Y-109244100D03*
X56000000Y-67244100D03*
X56000000Y-72755900D03*
X59000000Y-63755900D03*
X59000000Y-58244100D03*
X57500000Y-87244100D03*
X57500000Y-92755900D03*
D22*
X57000000Y-129303700D03*
X57000000Y-120896300D03*
M02*
