M48
; DRILL file {KiCad (5.1.6)-1} date 06/16/20 22:34:27
; FORMAT={-:-/ absolute / inch / decimal}
; #@! TF.CreationDate,2020-06-16T22:34:27-04:00
; #@! TF.GenerationSoftware,Kicad,Pcbnew,(5.1.6)-1
FMAT,2
INCH
T1C0.0100
T2C0.0157
T3C0.0394
T4C0.0400
T5C0.0402
T6C0.0551
T7C0.0630
T8C0.1654
T9C0.0858
T10C0.1260
%
G90
G05
T1
X4.7089Y-2.701
X4.7089Y-2.732
X4.7399Y-2.701
X4.7399Y-2.732
T2
X1.6339Y-5.2264
X1.6929Y-5.5118
X1.811Y-5.4134
X1.811Y-5.6004
X1.9291Y-5.5118
X2.1654Y-5.2264
X2.2441Y-4.5669
X2.2441Y-5.0787
X2.2441Y-5.1181
X2.2441Y-5.1575
X2.2539Y-6.3091
X2.2638Y-2.5098
X2.2638Y-3.3366
X2.2835Y-2.6476
X2.2835Y-4.5276
X2.2835Y-4.5669
X2.3228Y-3.4449
X2.3327Y-5.4626
X2.3622Y-5.7857
X2.4213Y-6.0531
X2.4409Y-5.6693
X2.4409Y-5.9055
X2.4508Y-5.5807
X2.5197Y-5.7874
X2.5591Y-5.4626
X2.6673Y-6.2992
X2.7657Y-5.2264
X2.7756Y-5.9449
X2.8346Y-5.6594
X2.8445Y-6.2992
X2.9528Y-6.2008
X3.0217Y-6.2992
X3.2382Y-5.6693
X3.2579Y-6.2992
X3.2677Y-5.2264
X3.2776Y-5.935
X3.3465Y-5.5512
X3.3465Y-5.7776
X3.435Y-5.6693
X3.435Y-6.2992
X3.4646Y-2.4311
X3.5433Y-2.4705
X3.5433Y-5.561
X3.5433Y-5.7776
X3.5433Y-6.2008
X3.6122Y-6.2992
X3.6319Y-5.6693
X3.6713Y-2.3622
X3.6909Y-2.1949
X3.7303Y-2.0866
X3.7697Y-2.1949
X3.8091Y-5.2264
X3.8091Y-5.935
X3.8386Y-5.6693
X3.8386Y-6.2992
X3.8878Y-2.4213
X3.937Y-5.561
X3.937Y-5.7874
X3.9665Y-2.4705
X4.0256Y-6.2992
X4.0354Y-5.6693
X4.0846Y-2.3524
X4.1142Y-2.2047
X4.1339Y-5.561
X4.1339Y-5.7874
X4.1339Y-6.2008
X4.1535Y-2.0965
X4.1929Y-2.2047
X4.2028Y-6.2992
X4.2126Y-5.6693
X4.2913Y-2.4213
X4.3701Y-2.4705
X4.3898Y-6.2992
X4.3996Y-5.2264
X4.3996Y-5.5512
X4.3996Y-5.935
X4.4193Y-2.6575
X4.4291Y-2.7461
X4.4783Y-2.7461
X4.498Y-2.3622
X4.5276Y-2.2146
X4.5276Y-2.6772
X4.5669Y-2.1063
X4.5768Y-2.8445
X4.5866Y-2.6575
X4.6063Y-2.2146
X4.6161Y-2.8445
X4.6752Y-2.4213
X4.7047Y-1.8504
X4.7047Y-2.0079
X4.7343Y-2.8438
X4.7539Y-2.4705
X4.7539Y-2.5984
X4.7835Y-1.7126
X4.8228Y-2.874
X4.8425Y-1.9587
X4.872Y-2.3622
X4.872Y-2.7102
X4.8721Y-2.6668
X4.9311Y-2.2047
X4.9311Y-2.5591
X4.9321Y-2.7102
X4.9606Y-2.6673
X4.9705Y-2.0965
X5.0098Y-2.2047
X5.1476Y-2.7705
X5.1929Y-2.7264
X5.1929Y-2.815
X5.4724Y-1.8012
X5.565Y-2.7264
X5.565Y-2.815
X5.6102Y-2.7705
X5.8661Y-1.8012
X5.9941Y-5.1969
X6.0236Y-4.8228
X6.1319Y-5.3051
X6.1516Y-4.7047
X6.1713Y-4.9213
X6.1713Y-5.0787
X6.2106Y-4.7146
X6.2106Y-5.2756
X6.2598Y-1.8012
X6.2894Y-4.9213
X6.2894Y-5.0787
X6.3878Y-4.9213
X6.3878Y-5.0787
X6.4567Y-4.685
X6.4567Y-5.2756
X6.5059Y-4.9213
X6.5059Y-5.0787
X6.5256Y-4.6752
X6.5354Y-5.3051
X6.6142Y-4.7835
X6.6535Y-1.8012
X6.6929Y-5.1969
X6.7421Y-3.5138
X7.0472Y-1.8307
X7.0472Y-2.2933
X7.0965Y-2.2933
X7.2638Y-2.0669
X7.3327Y-1.9685
X7.3327Y-2.1555
X7.4016Y-2.0669
X7.6083Y-2.3524
X7.6083Y-2.4508
X7.6378Y-1.811
X7.6575Y-2.4016
X7.8937Y-2.3425
X8.0315Y-1.811
X8.0315Y-4.3563
X8.0846Y-4.311
X8.1299Y-4.3563
X8.4252Y-1.811
X8.8189Y-1.811
X8.9764Y-4.9803
X9.0256Y-5.0886
X9.0551Y-5.2264
X9.1339Y-5.187
X9.1437Y-5.0886
X9.1929Y-4.9803
X9.2126Y-1.8307
X9.498Y-5.0295
X9.626Y-2.4311
X9.626Y-2.5295
X9.626Y-2.628
X9.626Y-2.7264
X9.626Y-2.8248
X9.626Y-2.9232
X9.626Y-3.0217
X9.626Y-3.1201
X9.626Y-3.2185
X9.626Y-3.3169
X9.626Y-3.4154
X9.626Y-3.5138
X9.9764Y-5.6417
X10.0394Y-4.5717
X10.1378Y-4.2913
X10.1772Y-4.2165
T3
X9.6161Y-4.8819
X9.6161Y-4.9819
X9.6161Y-5.0819
X9.6161Y-5.1819
X9.6161Y-5.2819
X9.6161Y-5.3819
X9.6161Y-5.4819
T4
X5.324Y-2.7705
X5.324Y-2.8705
X5.324Y-2.9705
X5.324Y-3.0705
X5.324Y-3.1705
X5.324Y-3.2705
X5.324Y-3.3705
X5.324Y-3.4705
X5.324Y-3.5705
X5.324Y-3.6705
X5.324Y-3.7705
X5.324Y-3.8705
X5.324Y-3.9705
X5.324Y-4.0705
X5.324Y-4.1705
X5.324Y-4.2705
X5.324Y-4.3705
X5.324Y-4.4705
X5.424Y-2.7705
X5.424Y-2.8705
X5.424Y-2.9705
X5.424Y-3.0705
X5.424Y-3.1705
X5.424Y-3.2705
X5.424Y-3.3705
X5.424Y-3.4705
X5.424Y-3.5705
X5.424Y-3.6705
X5.424Y-3.7705
X5.424Y-3.8705
X5.424Y-3.9705
X5.424Y-4.0705
X5.424Y-4.1705
X5.424Y-4.2705
X5.424Y-4.3705
X5.424Y-4.4705
X5.524Y-2.5705
X5.624Y-2.5705
X5.724Y-2.5705
X5.724Y-4.4705
X5.824Y-2.5705
X5.824Y-4.4705
X5.924Y-2.5705
X5.924Y-4.4705
X6.024Y-2.5705
X6.024Y-4.4705
X6.124Y-2.5705
X6.124Y-4.4705
X6.224Y-2.5705
X6.224Y-4.4705
X6.324Y-4.4705
X6.424Y-2.5705
X6.424Y-4.4705
X6.519Y-3.4705
X6.519Y-3.5705
X6.519Y-3.6705
X6.524Y-2.5705
X6.619Y-3.4705
X6.619Y-3.5705
X6.619Y-3.6705
X6.624Y-2.5705
X6.624Y-4.4705
X6.724Y-2.5705
X6.724Y-4.4705
X6.824Y-2.5705
X6.824Y-4.4705
X6.924Y-2.5705
X6.924Y-4.4705
X7.024Y-2.5705
X7.024Y-4.4705
X7.124Y-2.5705
X7.124Y-4.4705
X7.224Y-4.4705
X7.324Y-2.5705
X7.324Y-4.4705
X7.424Y-2.5705
X7.484Y-4.4705
X7.524Y-2.5705
X7.584Y-4.4705
X7.624Y-2.5705
X7.684Y-4.4705
X7.724Y-2.5705
X7.784Y-4.4705
X7.824Y-2.5705
X7.884Y-4.4705
X7.924Y-2.5705
X7.984Y-4.4705
X8.024Y-2.5705
X8.084Y-4.4705
X8.184Y-4.4705
X8.284Y-4.4705
X8.384Y-4.4705
T5
X2.5257Y-2.2426
X2.5257Y-2.3426
X2.5257Y-2.4426
X2.5257Y-2.5426
X2.5257Y-2.6426
X2.5257Y-2.7426
X2.6257Y-2.2426
X2.6257Y-2.3426
X2.6257Y-2.4426
X2.6257Y-2.5426
X2.6257Y-2.6426
X2.6257Y-2.7426
X2.5357Y-3.2981
X2.5357Y-3.3981
X2.5357Y-3.4981
X2.5357Y-3.5981
X2.5357Y-3.6981
X2.5357Y-3.7981
X2.6357Y-3.2981
X2.6357Y-3.3981
X2.6357Y-3.4981
X2.6357Y-3.5981
X2.6357Y-3.6981
X2.6357Y-3.7981
X2.5357Y-4.3454
X2.5357Y-4.4454
X2.5357Y-4.5454
X2.5357Y-4.6454
X2.5357Y-4.7454
X2.5357Y-4.8454
X2.6357Y-4.3454
X2.6357Y-4.4454
X2.6357Y-4.5454
X2.6357Y-4.6454
X2.6357Y-4.7454
X2.6357Y-4.8454
T6
X6.4173Y-5.6693
X6.6142Y-5.6693
X6.811Y-5.6693
X7.0079Y-5.6693
X7.2047Y-5.6693
X1.83Y-3.495
X1.83Y-3.695
X3.937Y-5.6693
X4.137Y-5.6693
X1.83Y-4.0551
X1.83Y-4.2551
X4.685Y-5.6693
X4.8819Y-5.6693
X5.0787Y-5.6693
X5.2756Y-5.6693
X5.4724Y-5.6693
X1.83Y-4.6457
X1.83Y-4.8457
X3.937Y-6.2992
X4.137Y-6.2992
X7.5197Y-1.5748
X7.7165Y-1.5748
X7.9134Y-1.5748
X8.1102Y-1.5748
X8.3071Y-1.5748
X8.5039Y-1.5748
X8.7008Y-1.5748
X8.8976Y-1.5748
X9.0945Y-1.5748
X9.2913Y-1.5748
X6.4173Y-6.29
X6.6142Y-6.29
X6.811Y-6.29
X7.0079Y-6.29
X7.2047Y-6.29
X1.81Y-5.515
X1.81Y-5.715
X1.83Y-2.9134
X1.83Y-3.1134
X1.83Y-2.3228
X1.83Y-2.5228
X3.3465Y-6.2992
X3.5465Y-6.2992
X3.3465Y-5.6693
X3.5465Y-5.6693
X5.3543Y-1.5748
X5.5512Y-1.5748
X5.748Y-1.5748
X5.9449Y-1.5748
X6.1417Y-1.5748
X6.3386Y-1.5748
X6.5354Y-1.5748
X6.7323Y-1.5748
X6.9291Y-1.5748
X7.126Y-1.5748
X3.563Y-1.575
X3.7598Y-1.575
X3.9567Y-1.575
X4.1535Y-1.575
X4.3504Y-1.575
X4.5472Y-1.575
X4.7441Y-1.575
X4.9409Y-1.575
X4.68Y-6.2992
X4.8769Y-6.2992
X5.0737Y-6.2992
X5.2706Y-6.2992
X5.4674Y-6.2992
X2.7559Y-6.2992
X2.9559Y-6.2992
X7.9921Y-6.2992
X8.189Y-6.2992
X8.3858Y-6.2992
X8.5827Y-6.2992
X8.7795Y-6.2992
T7
X8.3071Y-2.2343
X1.7913Y-5.0787
X9.3602Y-3.7992
X3.6319Y-2.7362
X3.0709Y-4.7146
X7.5886Y-6.25
T8
X9.8Y-6.1024
X3.937Y-4.7244
X9.8Y-3.937
X9.81Y-1.7717
X1.9685Y-6.1024
X1.9685Y-1.7717
T9
X2.5603Y-2.0773
X2.5603Y-2.908
X3.391Y-2.908
X2.5703Y-3.1328
X2.5703Y-3.9635
X3.401Y-3.9635
X2.5703Y-4.18
X2.5703Y-5.0107
X3.401Y-5.0107
T10
X5.324Y-2.5705
X5.574Y-4.4705
X6.524Y-2.7705
X6.524Y-3.8705
X8.524Y-4.4705
X8.574Y-2.5705
T0
M30
